<?xml version="1.0" encoding="utf-8"?>
<!-- Generator: Adobe Illustrator 13.0.0, SVG Export Plug-In  -->
<!DOCTYPE svg PUBLIC "-//W3C//DTD SVG 1.1 Basic//EN" "http://www.w3.org/Graphics/SVG/1.1/DTD/svg11-basic.dtd" [
	<!ENTITY ns_flows "http://ns.adobe.com/Flows/1.0/">
]>
<svg version="1.1" baseProfile="basic"
	 xmlns="http://www.w3.org/2000/svg" xmlns:xlink="http://www.w3.org/1999/xlink" xmlns:a="http://ns.adobe.com/AdobeSVGViewerExtensions/3.0/"
	 x="0px" y="0px" width="44px" height="44px" viewBox="0 0 44 44" enable-background="new 0 0 44 44" xml:space="preserve">
<defs>
</defs>
<path fill="#27442E" d="M30.663,11.395C34.503,7.189,38.039,2.13,43.958,0c-0.903,6.519-5.899,11.281-9.772,15.74
	c1.334,4.483,2.664,10.58-0.271,13.025c4.781-0.168,7.361,5.498,6.206,8.243c-3.289,0.951-3.642-0.817-4.035-2.274
	c-1.155,0.021-1.897,0.455-3.254,0.271c0.562,3.959,2.815,4.896,3.317,8.914c-0.178,0-0.361,0-0.545,0
	c-0.606-3.812-2.559-5.213-3.314-8.914c0.249-1.017,2.176-0.353,3.253-0.543c-0.323-1.134-0.283-2.104,0.271-2.981
	c0.477,0.658-0.467,2.574,0.543,3.254c0.889,0.072,0.576-1.053,1.357-1.086c-0.038,1.139-1.14,1.213-0.814,2.713
	c0.854,0.133,0.721-0.729,1.357-0.813c-0.238,0.479-0.859,0.792-0.271,1.355c1.037,0.134,1.734-0.075,2.173-0.543
	c0.043-5.871-5.593-8.889-10.312-5.424c1.465-1.248,3.67-1.761,4.34-3.799c-1.289-0.771-1.974-5.229,0.813-4.887
	c-0.622-3.265-0.866-6.912-2.44-9.227c0.654,0.339,0.877,1.112,1.084,1.899c2.975-2.679,7.869-5.873,5.969-11.667
	c-3.241,2.283-6.94,5.528-8.139,8.953c-3.527-1.883-12.225-2.934-14.11,0.271c-3.498-2.656-7.818-5.921-12.48-6.51
	c0.572,5.938,4.648,8.375,10.038,9.496c-0.228,0.795-0.874-0.16-1.356,0c-0.684,4.163-1.424,8.592-0.813,13.299
	c0.315,0.68,1.138,0.852,1.628,1.355c-1.59-0.752-6.288-1.725-8.41,0c-0.32,2.359-1.291,4.533,0,6.51
	c1.694,1.02,2.172-0.681,3.801-0.543c0.092-1.357-1.215-1.314-1.899-1.898c0.073-0.639,1.009,0.026,1.085,0.271
	c0.83-0.437,1.338-1.192,1.628-2.168c0.388,1.418,1.724,1.892,3.524,1.896c-3.047,1.385-1.532,6.039-2.273,9.729
	c-0.18,0-0.363,0-0.54,0c0.606-1.962-0.412-6.749,0.462-9.521c-0.847-0.406-0.432-0.137-1.01-0.914
	c-0.778-0.375-0.236,2.1-0.879,2.949c-1.731-0.271-2.817,3.492-4.988-0.781c-0.171-0.373-0.066-4.577,0.85-5.971
	c1.219-1.119,3.832-1.287,5.969-0.813c0.578-4.105,0-9.126,1.326-13.403C7.069,13.463,2.737,9.835,0,4.613
	c6.771-0.078,12.386,3.352,16.551,6.782C20.329,9.43,26.818,9.39,30.663,11.395z M34.73,22.521
	c-1.664-0.029-1.729,3.358-0.476,4.209C35.038,26.492,35.41,22.829,34.73,22.521z"/>
<radialGradient id="SVGID_1_" cx="178.5215" cy="-226.5869" r="19.0312" gradientTransform="matrix(1 0 0 -1 -156 -203)" gradientUnits="userSpaceOnUse">
	<stop  offset="0" style="stop-color:#3B712E"/>
	<stop  offset="1" style="stop-color:#3C712E"/>
</radialGradient>
<path fill="url(#SVGID_1_)" d="M14.382,30.12c-0.49-0.504-1.314-0.675-1.628-1.356c-0.612-4.707,0.129-9.135,0.813-13.298
	c0.482-0.16,1.127,0.795,1.356,0c-5.39-1.121-9.466-3.558-10.038-9.496c4.662,0.589,8.982,3.854,12.48,6.51
	c1.885-3.205,10.583-2.154,14.109-0.271c1.197-3.425,4.896-6.67,8.141-8.953c1.898,5.794-2.996,8.989-5.973,11.667
	c-0.207-0.786-0.43-1.56-1.084-1.899c1.574,2.315,1.818,5.962,2.44,9.227c-2.787-0.344-2.104,4.114-0.813,4.885
	c-0.67,2.04-2.875,2.552-4.34,3.8c4.721-3.465,10.354-0.446,10.312,5.424c-0.438,0.469-1.136,0.678-2.173,0.543
	c-0.588-0.563,0.033-0.877,0.271-1.354c-0.638,0.084-0.505,0.944-1.357,0.813c-0.324-1.5,0.776-1.575,0.814-2.713
	c-0.781,0.033-0.47,1.158-1.357,1.086c-1.01-0.68-0.066-2.596-0.543-3.254c-0.553,0.877-0.594,1.847-0.271,2.98
	c-1.077,0.189-3.003-0.475-3.253,0.543c0.757,3.701,2.708,5.102,3.314,8.914c-4.022,0-7.953,0-11.886,0c-0.059,0-0.116,0-0.176,0
	c-5.886-0.018-11.712-0.025-11.71,0c0.741-3.689-0.773-8.345,2.273-9.729c-1.801-0.004-3.135-0.478-3.524-1.896
	c-0.29,0.975-0.798,1.732-1.628,2.168c-0.076-0.244-1.012-0.909-1.085-0.271c0.683,0.584,1.991,0.539,1.899,1.898
	c-1.629-0.138-2.107,1.561-3.801,0.543c-1.291-1.977-0.32-4.15,0-6.51C8.092,28.396,12.791,29.369,14.382,30.12z M16.401,24.16
	c-1.819-1.467-4.566-1.332-3.076,3.146C15.36,29.344,18.008,26.63,16.401,24.16z M23.219,21.575
	c5.067-7.485-10.336-9.064-6.396,0.404C18.907,21.547,20.935,21.374,23.219,21.575z M18.451,24.15
	c-4.043,10.103,16.541,8.595,14.109-0.543C27.214,23.684,21.868,23.466,18.451,24.15z M26.05,21.165
	c0.027,0.689,1.009,0.64,1.357,0.271C27.379,20.747,26.395,20.795,26.05,21.165z M33.6,21.281c3.303-8.087-8.604-7.541-4.836,0.155
	C29.993,20.948,32.268,21.167,33.6,21.281z"/>
<path fill="#27442E" d="M13.325,27.307c-1.49-4.478,1.257-4.613,3.076-3.146C18.008,26.63,15.36,29.344,13.325,27.307z
	 M14.108,23.605c-1.188,0.375-1.156,3.396-0.105,3.938C17.125,28.798,17.837,23.407,14.108,23.605z"/>
<path fill="#2F6437" d="M14.004,27.545c-1.051-0.542-1.083-3.563,0.104-3.938C17.837,23.407,17.125,28.798,14.004,27.545z"/>
<path fill="#27442E" d="M16.823,21.979c-3.941-9.468,11.462-7.889,6.396-0.404C20.935,21.374,18.907,21.547,16.823,21.979z
	 M23.098,21.236c0.981-2.442,0.644-5.395-3.29-5.498c0.375,0.35,0.676,1.223,0.133,1.731c-0.746,0.545-2.373,0.662-2.303-0.646
	c-1.324,0.885-1.072,3.487-0.578,4.854C18.788,21.1,21.876,21.132,23.098,21.236z M19.265,16.009
	c-0.307-0.133-1.428,0.239-1.084,0.814C18.617,17.097,19.669,16.69,19.265,16.009z"/>
<path fill="#5F8C11" d="M19.94,17.469c0.543-0.507,0.242-1.381-0.133-1.731c3.933,0.103,4.271,3.056,3.289,5.498
	c-1.221-0.103-4.309-0.136-6.037,0.442c-0.494-1.368-0.746-3.97,0.578-4.854C17.567,18.131,19.194,18.014,19.94,17.469z"/>
<path fill="#5F8C11" d="M18.181,16.823c-0.344-0.575,0.777-0.947,1.084-0.814C19.669,16.69,18.617,17.097,18.181,16.823z"/>
<path fill="#27442E" d="M32.563,23.607c2.431,9.138-18.153,10.646-14.11,0.543C21.868,23.466,27.214,23.684,32.563,23.607z
	 M26.318,30.121c9.813-2.212,0.559-8.182-7.325-5.699c-0.297,1.62-0.547,2.372-0.271,4.07
	C20.603,25.922,25.604,27.547,26.318,30.121z M25.507,30.121c-0.405-2.018-5.018-3.188-6.242-1.086
	C20.044,30.555,23.629,30.589,25.507,30.121z"/>
<path fill="#2F6437" d="M26.32,30.12c-0.717-2.573-5.716-4.198-7.597-1.629c-0.277-1.698-0.027-2.45,0.271-4.07
	C26.877,21.938,36.134,27.909,26.32,30.12z"/>
<path fill="#3C712E" d="M19.265,29.035c1.225-2.102,5.838-0.932,6.242,1.086C23.629,30.589,20.044,30.555,19.265,29.035z"/>
<path fill="#2E5238" d="M27.407,21.436c-0.349,0.37-1.33,0.418-1.357-0.271C26.395,20.795,27.379,20.747,27.407,21.436z"/>
<path fill="#27442E" d="M28.764,21.436c-3.769-7.697,8.139-8.242,4.836-0.155C32.268,21.167,29.993,20.948,28.764,21.436z
	 M33.374,20.997c0.949-2.951,0.058-5.767-2.782-4.953c0.125,0.035,0.678,0.271,0.342,1.321c-0.295,0.5-1.65,0.863-1.9-0.222
	c-1.428,1.121,0.031,3.346-0.168,3.889C30.32,20.625,31.609,20.638,33.374,20.997z"/>
<path fill="#5F8C11" d="M30.934,17.365c0.338-1.05-0.217-1.286-0.342-1.321c2.84-0.814,3.732,2.003,2.782,4.953
	c-1.765-0.359-3.054-0.372-4.511,0.035c0.199-0.543-1.26-2.768,0.169-3.889C29.282,18.229,30.639,17.865,30.934,17.365z"/>
<path fill="#2F6437" d="M34.256,26.73c-1.254-0.851-1.189-4.238,0.475-4.209C35.41,22.829,35.038,26.492,34.256,26.73z"/>
<path fill="#5F8C11" d="M30.311,16.26c0.594,0.563-0.438,1.125-0.906,0.656C29.254,16.738,30.073,16.141,30.311,16.26"/>
</svg>
